<svg version="1.1" viewBox="0.0 0.0 319.67979002624674 319.65879265091866" fill="none" stroke="none" stroke-linecap="square" stroke-miterlimit="10" xmlns:xlink="http://www.w3.org/1999/xlink" xmlns="http://www.w3.org/2000/svg"><clipPath id="p.0"><path d="m0 0l319.67978 0l0 319.65878l-319.67978 0l0 -319.65878z" clip-rule="nonzero"/></clipPath><g clip-path="url(#p.0)"><path fill="#8250fa" fill-opacity="0.5" d="m0 0l319.67978 0l0 319.65878l-319.67978 0z" fill-rule="evenodd"/><path fill="#009664" d="m324.23773 258.1764c-58.999695 -0.18478394 -294.99838 -0.92388916 -353.99808 -1.1086731" fill-rule="evenodd"/><path fill="#009664" d="m67.39212 213.92668c-13.297272 -29.03447 53.68419 -173.80539 80.37775 -173.7251c26.693573 0.080280304 93.17992 145.2526 79.78363 174.20679c-13.396286 28.954193 -146.8641 28.55278 -160.16138 -0.4816742z" fill-rule="evenodd"/><path fill="#009664" d="m4.850014 219.40106c-7.976495 -21.796143 32.202972 -130.4755 48.215363 -130.41524c16.01239 0.060264587 55.89486 109.040955 47.858963 130.77682c-8.035889 21.73587 -88.09783 21.43454 -96.074326 -0.36158752z" fill-rule="evenodd"/><path fill="#009664" d="m168.37817 217.08871c-12.059692 -24.851685 48.687836 -148.76654 72.89703 -148.69783c24.209198 0.06871796 84.50772 124.32715 72.358215 149.1101c-12.149506 24.782974 -133.19554 24.439407 -145.25525 -0.41227722z" fill-rule="evenodd"/></g></svg>
